<svg xmlns="http://www.w3.org/2000/svg" viewBox="0 0 64 64">
  <defs>
    <linearGradient id="bg" x1="8" y1="6" x2="56" y2="58" gradientUnits="userSpaceOnUse">
      <stop offset="0" stop-color="#16a34a" />
      <stop offset="1" stop-color="#2563eb" />
    </linearGradient>
    <linearGradient id="meter" x1="22" y1="18" x2="42" y2="46" gradientUnits="userSpaceOnUse">
      <stop offset="0" stop-color="#ffffff" stop-opacity="0.98" />
      <stop offset="1" stop-color="#dbeafe" stop-opacity="0.98" />
    </linearGradient>
  </defs>
  <rect x="4" y="4" width="56" height="56" rx="16" fill="url(#bg)" />
  <path
    d="M20 24a12 12 0 0 1 24 0v6a4 4 0 0 1-4 4H24a4 4 0 0 1-4-4z"
    fill="url(#meter)"
  />
  <path
    d="M24 38h16c2.2 0 4 1.8 4 4v2H20v-2c0-2.2 1.8-4 4-4Z"
    fill="#ecfeff"
    fill-opacity="0.95"
  />
  <circle cx="32" cy="24" r="2.5" fill="#2563eb" />
  <path
    d="M32 24l6-4"
    stroke="#1d4ed8"
    stroke-linecap="round"
    stroke-width="2.5"
  />
  <path
    d="M24 48h16"
    stroke="#86efac"
    stroke-linecap="round"
    stroke-width="3"
  />
  <path
    d="M28 18.5A9.5 9.5 0 0 1 36 18.5"
    stroke="#bfdbfe"
    stroke-linecap="round"
    stroke-width="2"
  />
</svg>
